<?xml version="1.0" standalone="no"?>
<!DOCTYPE svg PUBLIC "-//W3C//DTD SVG 20010904//EN"
 "http://www.w3.org/TR/2001/REC-SVG-20010904/DTD/svg10.dtd">
<svg version="1.0" xmlns="http://www.w3.org/2000/svg"
 width="502.000000pt" height="502.000000pt" viewBox="0 0 502.000000 502.000000"
 preserveAspectRatio="xMidYMid meet">
<metadata>
Created by potrace 1.14, written by Peter Selinger 2001-2017
</metadata>
<g transform="translate(0.000000,502.000000) scale(0.100000,-0.100000)"
fill="#000000" stroke="none">
<path d="M2407 4857 c3 -7 19 -28 33 -47 36 -46 63 -124 62 -182 -1 -57 -26
-106 -92 -178 -57 -62 -75 -106 -65 -156 14 -77 114 -148 202 -142 l48 3 -38
19 c-107 53 -103 142 12 266 66 71 92 123 86 172 -9 70 -67 154 -140 204 -40
27 -117 56 -108 41z"/>
<path d="M2363 4725 c-2 -58 -26 -95 -104 -165 -95 -85 -114 -149 -74 -248 23
-55 104 -129 143 -130 25 0 29 3 25 19 -3 10 -9 19 -13 19 -9 0 -43 67 -47 94
-7 40 19 96 68 148 89 93 106 148 69 223 -17 37 -53 85 -62 85 -2 0 -4 -20 -5
-45z"/>
<path d="M2670 4724 c0 -3 4 -13 9 -22 13 -24 23 -81 21 -121 -1 -50 -23 -89
-86 -156 -80 -86 -99 -144 -62 -190 33 -43 107 -61 179 -46 l34 8 -47 22 c-27
13 -49 26 -50 30 -5 24 -4 61 3 61 5 0 9 7 9 15 0 8 4 15 9 15 15 0 79 71 96
106 34 73 15 160 -52 235 -40 44 -63 60 -63 43z"/>
<path d="M2845 4518 c2 -21 -1 -38 -7 -38 -5 0 -7 -4 -4 -9 12 -18 -16 -66
-70 -122 -58 -62 -62 -70 -40 -88 49 -41 120 -25 145 31 22 50 19 164 -6 218
l-21 45 3 -37z"/>
<path d="M2727 4155 c-16 -12 -15 -15 14 -46 40 -43 49 -68 49 -132 0 -63 -16
-123 -41 -159 -19 -26 -19 -27 0 -33 44 -14 101 43 125 127 24 83 8 154 -47
208 -22 22 -42 38 -45 36 -2 -3 -12 -1 -21 3 -10 6 -23 5 -34 -4z"/>
<path d="M2222 4122 c-65 -65 -75 -150 -31 -253 25 -57 47 -79 84 -82 34 -2
42 14 19 37 -18 18 -34 78 -38 138 -3 52 20 116 55 151 35 34 30 47 -17 47
-26 0 -43 -9 -72 -38z"/>
<path d="M2335 4109 c-38 -30 -57 -76 -59 -139 -3 -83 26 -150 71 -164 32 -10
77 35 67 67 -13 42 -11 107 6 155 19 54 14 69 -32 89 -23 10 -30 9 -53 -8z"/>
<path d="M2653 4114 c-42 -21 -44 -31 -24 -95 11 -31 16 -69 13 -89 -11 -75
-8 -92 20 -113 26 -19 28 -19 53 -3 35 23 56 75 56 139 0 67 -7 96 -29 126
-33 44 -53 52 -89 35z"/>
<path d="M2512 4089 c-52 -11 -82 -67 -82 -155 0 -100 49 -161 116 -143 47 13
69 65 69 160 -1 65 -4 80 -25 107 -31 38 -37 40 -78 31z"/>
<path d="M2364 3788 c-26 -6 -33 -15 -41 -45 -10 -42 -9 -81 2 -133 4 -19 8
-41 8 -48 1 -20 35 -29 87 -25 51 4 165 3 227 -1 23 -2 46 0 52 3 18 12 28 56
30 137 2 88 -9 112 -52 116 -12 1 -31 2 -42 3 -11 1 -32 -4 -47 -12 -34 -16
-92 -17 -121 -1 -27 15 -63 17 -103 6z"/>
<path d="M2355 3508 c-16 -5 -45 -11 -63 -14 -36 -5 -99 -34 -146 -67 -28 -20
-63 -84 -51 -95 5 -5 76 7 195 34 44 10 343 12 405 3 33 -5 74 -11 92 -13 18
-3 40 -9 50 -14 17 -9 61 -16 91 -13 26 2 11 46 -31 85 -39 38 -135 82 -202
93 -48 9 -313 9 -340 1z"/>
<path d="M2503 3352 c-32 -5 -77 -67 -111 -153 -29 -74 -61 -188 -68 -242 -2
-16 -6 -33 -9 -38 -3 -4 -8 -25 -11 -46 -2 -21 -7 -45 -9 -54 -3 -8 -7 -37
-10 -65 -2 -27 -7 -59 -9 -71 -13 -64 -39 -414 -39 -540 0 -38 -4 -53 -14 -53
-11 0 -13 19 -8 103 10 187 16 292 20 322 2 17 7 60 10 96 3 36 8 76 10 90 2
13 7 44 10 69 6 53 12 85 20 120 3 14 8 40 11 59 23 139 104 363 136 373 23 8
-3 28 -30 22 -78 -16 -225 -74 -242 -94 -3 -4 -25 -20 -50 -37 -82 -57 -185
-166 -260 -277 -40 -59 -110 -194 -110 -212 0 -7 -3 -14 -7 -16 -7 -3 -42 -88
-47 -113 -1 -5 -4 -15 -8 -20 -3 -6 -9 -27 -13 -48 -4 -20 -11 -40 -16 -43 -5
-3 -7 -9 -4 -14 3 -5 2 -18 -4 -27 -5 -10 -11 -31 -14 -48 -3 -16 -8 -46 -11
-65 -12 -62 -14 -75 -15 -87 -1 -7 -6 -13 -12 -13 -17 0 -6 80 32 230 12 47
25 94 29 105 14 32 24 69 22 78 -1 4 3 7 8 7 5 0 9 3 8 8 -5 25 140 307 171
332 3 3 19 23 36 45 61 83 166 179 260 238 68 42 39 48 -69 13 -45 -15 -85
-26 -90 -26 -5 1 -12 -2 -15 -7 -8 -11 -144 -77 -153 -75 -5 1 -8 -2 -8 -7 0
-5 -13 -14 -30 -21 -16 -7 -30 -16 -30 -21 0 -5 -5 -9 -10 -9 -23 0 -130 -88
-230 -189 -89 -90 -161 -181 -217 -276 -52 -89 -136 -299 -150 -375 -2 -14 -8
-41 -13 -60 -5 -19 -11 -54 -12 -77 -2 -24 -5 -43 -8 -43 -3 0 -5 -17 -3 -38
1 -33 -5 -45 -63 -107 -35 -39 -64 -73 -64 -77 0 -4 -26 -21 -59 -37 -59 -30
-71 -48 -96 -141 -5 -22 -275 -822 -283 -840 -3 -8 -7 -19 -7 -25 -1 -5 -5
-17 -8 -25 -4 -8 -47 -134 -95 -280 l-89 -266 998 1 999 0 36 -43 c59 -71 137
-90 217 -52 23 10 54 36 70 57 l27 38 990 0 c545 -1 990 0 990 0 0 1 -14 41
-31 91 -17 49 -32 96 -34 104 -2 8 -4 16 -5 18 -2 1 -3 5 -5 10 -1 4 -5 15 -9
24 -4 9 -9 22 -10 30 -2 7 -6 20 -9 28 -8 19 -89 262 -92 275 -1 6 -5 17 -8
25 -3 8 -18 51 -33 95 -14 44 -73 220 -131 390 -58 171 -106 315 -107 320 -2
6 -6 17 -9 25 -3 8 -12 35 -20 60 -13 39 -23 49 -73 78 -33 19 -63 41 -68 49
-5 9 -20 29 -35 44 -87 93 -85 90 -88 143 -1 28 -7 74 -13 101 -6 28 -12 61
-14 75 -1 14 -6 33 -11 43 -4 10 -9 26 -10 35 -1 10 -4 24 -7 32 -3 8 -16 44
-28 80 -31 91 -152 315 -190 350 -3 3 -22 26 -43 53 -52 64 -120 132 -187 187
-30 25 -56 48 -58 53 -2 4 -10 7 -18 7 -8 0 -14 5 -14 10 0 6 -6 10 -14 10 -8
0 -16 4 -18 8 -5 14 -192 117 -233 128 -5 2 -48 17 -95 34 -46 17 -95 30 -109
28 -22 -3 -16 -8 41 -46 86 -55 167 -129 239 -220 63 -78 159 -234 159 -256 0
-8 5 -16 11 -18 5 -2 11 -10 13 -18 1 -8 10 -33 20 -55 32 -73 75 -217 96
-319 11 -55 23 -111 25 -123 4 -15 1 -23 -8 -23 -8 0 -18 30 -29 88 -9 48 -18
96 -21 107 -26 100 -39 142 -54 185 -4 8 -7 20 -9 27 -7 35 -123 258 -168 323
-128 188 -313 328 -494 374 -72 19 -92 14 -64 -18 44 -50 108 -243 138 -416 7
-39 14 -77 18 -97 3 -12 7 -46 10 -75 4 -29 8 -69 11 -88 2 -19 7 -69 11 -110
3 -41 8 -91 10 -110 11 -112 15 -330 5 -330 -6 0 -11 6 -12 13 0 6 -2 50 -4
97 -6 123 -14 258 -19 310 -5 46 -15 133 -23 205 -2 22 -5 52 -6 68 -1 15 -5
27 -8 27 -3 0 -6 6 -6 13 0 14 -10 77 -18 122 -3 17 -15 64 -26 105 -11 41
-22 83 -24 92 -9 42 -61 145 -84 171 -32 35 -50 44 -78 39z m-783 -1163 c47
-1 123 -11 170 -21 47 -11 90 -20 97 -22 7 -1 16 -5 19 -9 4 -4 15 -7 25 -7
23 0 192 -85 228 -115 16 -14 33 -25 38 -25 12 0 133 -117 166 -161 l27 -36 0
-656 c0 -362 -2 -657 -4 -657 -3 0 -40 22 -83 49 -84 52 -234 129 -293 150
-19 7 -44 17 -55 21 -33 14 -137 47 -185 59 -45 11 -61 14 -155 31 -55 9 -332
6 -380 -4 -97 -22 -221 -59 -274 -83 -18 -8 -39 -16 -45 -17 -19 -4 -111 -50
-117 -59 -3 -5 -8 -7 -11 -5 -6 4 -82 -35 -86 -44 -2 -5 -9 -8 -16 -8 -9 0 -5
31 15 113 16 61 30 123 33 137 2 14 12 53 21 87 9 35 18 71 20 80 2 10 25 104
50 208 26 105 48 195 49 200 1 6 5 19 9 30 3 11 8 31 11 45 2 14 14 63 26 110
12 47 24 96 26 110 3 14 17 70 30 125 14 55 28 108 30 119 5 24 25 47 89 96
51 39 205 125 205 114 0 -3 6 -2 13 3 6 4 17 8 22 10 6 1 21 5 35 8 44 12 155
32 160 29 3 -1 44 -4 90 -5z m1735 -3 c79 -9 146 -27 205 -54 19 -9 40 -17 45
-18 20 -3 160 -103 191 -136 29 -30 36 -47 49 -118 5 -28 9 -46 25 -105 6 -22
13 -49 15 -60 2 -11 19 -83 39 -160 72 -291 89 -361 92 -380 1 -11 3 -21 4
-22 2 -2 4 -7 5 -13 1 -5 4 -13 5 -17 1 -5 2 -11 1 -15 0 -4 4 -19 9 -33 10
-25 18 -61 25 -100 2 -11 4 -20 5 -20 3 0 20 -76 24 -105 1 -8 5 -22 8 -30 8
-19 27 -97 33 -130 2 -14 9 -40 14 -59 6 -19 9 -36 7 -38 -1 -2 -55 24 -119
57 -65 32 -117 57 -117 55 0 -2 -24 7 -53 20 -29 14 -106 38 -172 56 -101 26
-142 31 -265 34 -164 4 -237 -4 -389 -45 -187 -50 -364 -126 -511 -221 -43
-27 -79 -49 -82 -49 -11 0 -6 1304 4 1324 9 17 52 67 84 100 131 131 328 234
499 262 17 3 37 8 45 11 8 3 56 8 105 10 50 3 91 6 93 8 2 1 11 1 20 -1 9 -2
35 -5 57 -8z m-2670 -1086 c-3 -5 -8 -18 -10 -27 -2 -10 -12 -51 -23 -90 -12
-40 -18 -73 -16 -73 3 0 2 -6 -3 -12 -4 -7 -8 -17 -9 -23 -1 -5 -7 -30 -13
-55 -16 -64 -21 -82 -25 -105 -16 -77 -71 -282 -79 -292 -10 -14 -57 -18 -57
-5 -1 18 226 692 233 692 4 0 5 -4 2 -10z m3505 -82 c13 -40 24 -77 25 -83 1
-5 4 -17 7 -25 15 -36 99 -287 102 -307 3 -12 10 -31 16 -42 6 -12 8 -21 5
-21 -3 0 1 -13 10 -29 8 -17 16 -38 18 -48 1 -10 6 -23 10 -30 9 -15 -1 -21
-35 -21 -16 0 -28 6 -29 12 -1 14 2 5 -64 261 -55 219 -61 242 -70 280 -2 11
-8 35 -14 53 -5 17 -7 32 -3 32 3 0 1 5 -6 12 -14 14 -16 28 -4 28 4 0 19 -33
32 -72z m-2580 -271 c77 -12 114 -19 137 -28 13 -5 23 -6 23 -4 0 3 15 -1 33
-8 17 -8 37 -15 42 -15 24 -4 111 -35 119 -43 6 -5 16 -9 23 -9 7 0 54 -20
105 -44 138 -64 278 -152 160 -100 -21 9 -53 23 -72 32 -37 16 -202 69 -260
82 -19 5 -55 14 -79 20 -24 6 -46 8 -49 5 -3 -2 -10 -1 -16 4 -11 8 -42 13
-171 28 -86 10 -380 5 -380 -7 0 0 -16 -3 -35 -5 -56 -6 -103 -14 -139 -25
-19 -5 -38 -7 -42 -4 -5 3 -9 1 -9 -4 0 -5 -6 -9 -12 -9 -16 0 -155 -41 -183
-53 -39 -18 -109 -39 -114 -34 -2 2 14 12 37 21 23 9 42 20 42 25 0 4 5 8 11
8 6 0 42 16 80 35 38 19 69 32 69 28 0 -3 6 0 14 6 12 10 112 48 146 56 8 1
35 8 60 15 125 34 330 46 460 27z m2001 -11 c37 -8 79 -17 93 -20 72 -13 224
-78 429 -183 50 -26 28 -23 -55 9 -46 17 -104 37 -131 44 -26 7 -51 15 -55 18
-5 3 -19 7 -33 10 -13 3 -35 7 -49 10 -14 3 -50 11 -80 18 -30 6 -71 12 -90
13 -19 2 -35 3 -35 5 0 5 -92 11 -190 12 -102 1 -216 -5 -275 -16 -14 -2 -47
-7 -75 -11 -27 -4 -60 -11 -72 -16 -13 -5 -23 -6 -23 -3 0 3 -6 2 -12 -3 -7
-4 -17 -8 -23 -9 -49 -10 -60 -13 -60 -14 0 -2 -38 -11 -52 -12 -7 -1 -13 -6
-13 -11 0 -6 -3 -8 -6 -4 -4 3 -22 0 -40 -8 -19 -8 -34 -12 -34 -10 0 2 -44
-14 -97 -36 -54 -22 -93 -35 -88 -30 32 31 335 179 335 164 0 -3 6 -1 13 4 10
9 103 43 132 49 144 30 216 44 240 47 64 9 283 -2 346 -17z m-2031 -110 c66
-6 135 -15 170 -21 14 -3 39 -8 55 -10 37 -5 242 -62 270 -74 11 -5 44 -17 72
-27 83 -28 53 -29 -54 -1 -85 22 -175 40 -200 39 -5 0 -14 5 -22 11 -12 10
-13 9 -7 -1 7 -11 4 -12 -10 -4 -36 19 -238 35 -424 35 -126 -1 -265 -8 -265
-13 0 -2 -69 -9 -112 -12 -13 -1 -23 -4 -23 -7 0 -4 -16 -7 -34 -8 -30 -1
-246 -50 -301 -68 -20 -6 -20 -6 0 6 22 14 265 100 265 93 0 -2 11 1 26 6 14
6 37 12 52 15 15 3 38 7 52 10 14 3 39 7 55 10 17 3 44 8 60 11 17 3 64 8 105
11 41 2 76 6 77 6 3 3 134 -2 193 -7z m1965 -1 c28 -3 64 -7 80 -10 17 -3 46
-7 65 -9 19 -3 35 -6 35 -7 0 -1 9 -3 20 -4 26 -3 183 -45 215 -58 8 -3 44
-16 80 -28 75 -26 130 -48 130 -53 0 -1 -37 8 -82 21 -116 34 -217 55 -321 68
-15 2 -38 5 -50 8 -100 25 -522 27 -642 3 -11 -2 -42 -7 -68 -10 -56 -8 -67
-10 -122 -21 -22 -4 -47 -9 -55 -10 -8 -1 -44 -10 -80 -20 -64 -17 -71 -19
-120 -30 -16 -4 -13 0 10 10 40 19 230 83 263 89 12 2 40 9 62 14 22 6 52 14
68 17 15 3 39 8 55 11 15 3 45 7 67 9 22 2 40 4 40 5 0 1 38 4 85 7 47 2 86 6
87 7 4 3 119 -2 178 -9z m-1910 -99 c33 -3 76 -8 96 -10 20 -2 56 -7 80 -11
24 -3 58 -9 74 -11 17 -3 37 -7 45 -9 8 -2 31 -7 50 -10 19 -3 71 -15 115 -27
44 -11 85 -21 92 -22 63 -10 -81 -13 -737 -13 -418 0 -759 2 -757 4 13 12 262
70 382 88 88 13 116 16 185 21 41 3 76 7 77 8 4 4 241 -2 298 -8z m1953 0
c143 -11 454 -71 542 -104 15 -6 -264 -9 -745 -9 -763 0 -769 1 -710 19 94 29
334 76 425 83 25 2 45 5 45 6 0 1 31 3 69 5 37 1 70 4 72 6 5 5 219 1 302 -6z"/>
</g>
</svg>
